<?xml version="1.0" standalone="no"?>
<!DOCTYPE svg PUBLIC "-//W3C//DTD SVG 20010904//EN"
 "http://www.w3.org/TR/2001/REC-SVG-20010904/DTD/svg10.dtd">
<svg version="1.0" xmlns="http://www.w3.org/2000/svg"
 width="512.000000pt" height="512.000000pt" viewBox="0 0 512.000000 512.000000"
 preserveAspectRatio="xMidYMid meet">

<g transform="translate(0.000000,512.000000) scale(0.100000,-0.100000)"
fill="#000000" stroke="none">
<path d="M2300 5094 c-14 -2 -65 -9 -115 -15 -175 -22 -408 -83 -590 -156
-693 -277 -1191 -800 -1440 -1513 -35 -99 -71 -257 -102 -445 -27 -166 -24
-542 5 -722 66 -395 201 -737 420 -1063 336 -499 846 -850 1452 -999 626 -154
1269 -81 1834 207 228 116 423 260 612 454 301 307 506 663 627 1088 147 512
125 1092 -58 1566 -172 443 -464 835 -825 1105 -320 239 -697 398 -1130 476
-81 14 -625 28 -690 17z m-10 -144 c0 -14 -74 -66 -142 -101 -31 -15 -130 -53
-220 -83 -247 -82 -348 -126 -536 -234 -252 -144 -456 -315 -613 -512 -148
-185 -266 -395 -301 -531 -39 -155 -12 -321 66 -401 35 -37 60 -42 95 -22 28
16 31 16 95 -9 50 -20 84 -27 136 -27 119 0 196 48 248 153 27 55 32 75 32
140 0 121 -50 206 -153 259 -65 33 -178 37 -245 8 -139 -60 -205 -247 -138
-394 35 -79 28 -96 -8 -20 -57 119 -46 260 33 430 47 99 182 304 260 394 31
36 67 78 81 94 39 44 207 176 290 228 41 26 122 63 180 84 102 36 109 37 245
38 157 0 187 -7 259 -64 105 -83 128 -215 61 -355 -14 -30 -27 -55 -28 -55 -1
0 -2 42 -2 92 0 76 -4 100 -22 134 -26 49 -92 110 -142 132 -55 24 -184 22
-241 -5 -57 -26 -118 -87 -156 -155 -25 -46 -29 -63 -29 -133 0 -68 5 -88 30
-138 64 -128 166 -182 329 -175 80 3 102 8 159 36 140 69 237 235 237 406 0
36 4 66 9 66 19 0 69 -72 87 -126 16 -47 16 -59 5 -87 -51 -128 -38 -149 56
-85 l42 28 42 -72 c72 -126 112 -192 132 -221 19 -27 20 -28 39 -10 11 10 29
36 40 58 12 22 46 78 77 126 31 48 61 94 66 103 9 15 13 14 45 -8 19 -14 47
-28 63 -32 26 -6 27 -4 27 30 0 27 -9 46 -35 75 l-36 40 36 75 c32 68 72 116
97 116 5 0 7 -8 4 -17 -3 -10 -1 -55 4 -101 18 -161 112 -297 249 -365 63 -31
71 -32 186 -32 138 0 169 11 241 87 62 64 87 120 92 209 4 67 1 84 -21 132
-32 71 -83 126 -148 162 -46 25 -64 29 -139 29 -74 1 -92 -3 -140 -27 -101
-50 -159 -166 -147 -294 4 -37 3 -61 -3 -58 -5 3 -22 41 -39 85 -31 80 -38
142 -24 211 9 49 104 141 168 163 100 35 312 30 430 -9 147 -50 346 -187 508
-351 163 -166 345 -455 377 -599 14 -63 14 -170 0 -193 -8 -14 -9 -12 -4 9 8
39 -14 149 -41 194 -116 199 -413 181 -506 -31 -30 -67 -35 -150 -12 -210 52
-134 145 -204 272 -204 84 1 139 25 210 93 35 34 51 45 48 32 -19 -70 -19 -85
0 -85 45 1 88 46 129 133 67 148 33 316 -114 571 -147 252 -368 487 -617 652
-237 158 -492 277 -815 379 -95 30 -210 88 -242 122 l-21 23 39 0 c117 0 350
-53 536 -121 462 -169 829 -441 1120 -829 89 -119 230 -373 289 -523 39 -99
90 -287 114 -427 22 -127 32 -116 -97 -115 -62 1 -119 2 -126 3 -7 1 16 30 51
64 109 109 145 246 86 329 -14 20 -28 29 -42 27 -18 -3 -23 -14 -33 -78 -13
-86 -38 -140 -85 -188 -69 -71 -169 -111 -320 -132 -224 -31 -366 52 -542 315
-89 133 -127 179 -202 243 -91 79 -163 101 -189 60 -9 -15 -6 -21 14 -34 55
-36 188 -187 240 -270 30 -49 83 -127 118 -173 35 -45 61 -85 58 -88 -3 -3
-30 -16 -59 -28 -64 -26 -181 -101 -220 -143 l-28 -29 78 -51 c43 -28 113 -67
156 -87 42 -20 77 -38 77 -42 0 -3 -18 -29 -39 -57 -22 -28 -71 -104 -110
-170 -94 -158 -160 -244 -239 -315 -65 -60 -65 -60 -49 -85 16 -23 20 -24 45
-14 115 50 205 144 334 348 172 273 219 325 321 353 86 24 113 27 132 13 23
-17 13 -46 -16 -46 -38 0 -178 -80 -215 -123 -93 -110 -82 -293 25 -397 109
-106 292 -109 395 -6 59 60 81 110 80 191 0 83 -25 142 -92 217 -24 26 -42 48
-39 48 2 0 22 -14 43 -31 105 -84 142 -224 105 -407 -36 -181 -83 -290 -198
-464 -101 -155 -177 -242 -281 -325 -137 -108 -213 -154 -322 -196 -128 -49
-193 -60 -330 -55 -99 4 -123 9 -174 33 -120 57 -186 156 -186 282 0 78 30
165 72 210 33 35 39 28 18 -19 -39 -86 -17 -219 50 -300 17 -21 59 -51 95 -69
59 -29 71 -31 132 -26 185 14 302 144 304 337 1 53 -5 78 -25 117 -33 66 -95
126 -165 161 -51 25 -66 27 -166 27 -100 0 -116 -3 -165 -27 -91 -45 -168
-128 -207 -223 -29 -71 -35 -98 -42 -200 l-6 -89 -33 29 c-21 20 -42 54 -58
99 l-25 69 23 54 c30 73 17 85 -51 47 -28 -15 -53 -25 -54 -23 -8 9 -107 179
-142 242 -25 45 -43 67 -53 65 -8 -2 -55 -67 -103 -146 -48 -79 -89 -145 -92
-148 -3 -3 -23 4 -46 15 -22 12 -47 21 -56 21 -18 0 -20 -38 -6 -88 14 -49
-18 -148 -62 -190 l-34 -33 -5 109 c-4 99 -8 116 -40 184 -43 90 -111 161
-194 203 -55 28 -66 30 -174 30 -101 0 -120 -3 -158 -23 -109 -58 -192 -178
-192 -276 0 -157 84 -283 221 -331 212 -75 437 155 356 365 -25 67 -94 107
-136 81 -11 -7 -9 -18 12 -62 38 -78 43 -127 19 -181 -24 -54 -65 -85 -128
-97 -114 -22 -217 64 -231 194 -10 83 42 170 122 206 62 29 182 26 243 -5 152
-77 229 -282 163 -433 -27 -62 -102 -135 -169 -166 -41 -19 -63 -22 -182 -21
-140 1 -203 13 -326 62 -108 43 -261 151 -377 267 -155 154 -323 433 -379 630
-32 115 -33 296 0 376 22 55 68 117 79 106 3 -3 -6 -21 -20 -39 -69 -91 -88
-216 -46 -301 50 -100 125 -148 239 -155 98 -6 162 20 224 89 73 81 96 197 60
302 -36 106 -166 186 -281 174 -32 -3 -68 -9 -80 -13 -33 -9 -29 10 8 46 72
69 228 46 324 -47 48 -47 128 -156 193 -263 69 -115 90 -143 177 -230 89 -90
179 -149 203 -133 31 19 26 57 -10 85 -88 67 -188 189 -268 328 -52 89 -104
165 -137 201 -28 31 -26 34 67 72 69 29 205 124 205 144 0 20 -115 103 -207
149 -49 24 -88 46 -88 48 0 2 13 18 29 34 15 17 59 77 97 134 104 157 179 253
232 297 26 22 61 51 77 65 l30 25 -21 21 c-19 20 -23 20 -62 7 -58 -20 -162
-98 -215 -159 -25 -29 -70 -96 -101 -147 -98 -164 -181 -253 -284 -303 -66
-33 -68 -33 -207 -33 -123 0 -148 3 -209 24 -160 57 -222 133 -260 321 -9 44
-15 56 -32 58 -16 2 -25 -5 -34 -28 -7 -17 -14 -29 -17 -27 -10 10 66 206 132
342 139 284 324 528 555 731 366 320 812 516 1333 583 4 1 7 -3 7 -9z m218
-375 c0 -77 -3 -149 -7 -159 -6 -17 -10 -15 -28 17 -52 88 -65 146 -61 284 l3
130 40 49 40 49 6 -115 c4 -63 7 -178 7 -255z m151 318 c44 -65 54 -113 49
-223 -5 -103 -30 -183 -73 -236 l-24 -29 -1 268 c0 153 4 267 9 267 5 0 23
-21 40 -47z m189 -107 c41 -27 252 -107 439 -167 67 -22 124 -43 127 -48 3 -4
-33 -11 -79 -15 -47 -3 -106 -13 -132 -22 -54 -18 -164 -87 -233 -145 -26 -21
-49 -39 -52 -39 -11 0 19 97 43 140 22 39 87 88 138 105 39 12 9 25 -75 31
-59 4 -84 2 -97 -8 -18 -14 -94 -203 -156 -391 -18 -54 -36 -97 -41 -95 -4 2
-28 29 -54 60 l-46 58 31 32 c125 129 175 302 144 501 -5 33 -4 33 43 3z
m-541 -108 c0 -87 5 -141 17 -183 19 -65 84 -183 118 -215 18 -16 19 -24 11
-42 -17 -37 -85 -110 -93 -101 -4 4 -19 49 -33 100 -45 158 -118 346 -144 371
-25 23 -77 29 -155 16 -49 -8 -48 -20 2 -35 70 -21 139 -117 153 -213 l6 -39
-27 24 c-14 13 -44 41 -67 61 -86 80 -206 127 -334 131 -45 1 -81 5 -81 8 0 8
39 22 254 94 93 31 210 76 260 100 50 24 96 44 102 44 7 1 10 -41 11 -121z
m-486 -494 c39 -38 63 -104 56 -155 -8 -64 -66 -171 -104 -192 -28 -16 -40
-17 -90 -8 -95 18 -166 97 -180 199 -11 83 61 173 157 198 56 14 119 -2 161
-42z m1633 45 c84 -21 156 -110 156 -192 0 -98 -77 -188 -179 -207 -88 -17
-143 14 -182 103 -51 117 -18 231 83 281 59 30 63 30 122 15z m-849 -139 l58
-71 -54 -79 c-30 -44 -56 -80 -59 -80 -7 1 -105 157 -105 169 0 9 92 131 99
131 2 0 30 -32 61 -70z m-1655 -610 c141 -72 108 -323 -44 -345 -86 -13 -152
22 -187 100 -73 160 79 322 231 245z m3357 9 c34 -13 80 -55 99 -91 33 -63 6
-182 -51 -226 -82 -65 -211 -38 -254 52 -31 64 -36 111 -17 160 35 91 135 139
223 105z m-4050 -231 c-3 -7 -5 -2 -5 12 0 14 2 19 5 13 2 -7 2 -19 0 -25z
m38 -177 c27 -49 106 -131 126 -131 5 0 9 -4 9 -10 0 -11 -96 -13 -187 -4 -69
7 -65 -11 -31 159 33 162 30 157 43 95 6 -31 24 -80 40 -109z m3745 -207 c108
-22 116 -25 99 -34 -8 -4 -31 -10 -52 -14 -20 -4 -70 -20 -110 -36 -39 -17
-77 -30 -84 -30 -7 0 -42 14 -78 32 -74 35 -74 37 8 80 57 29 79 30 217 2z
m-2742 -14 c34 -16 62 -31 62 -33 0 -3 -28 -21 -62 -41 -59 -36 -62 -37 -97
-23 -20 8 -81 27 -136 42 -55 14 -104 30 -109 35 -5 5 9 12 30 15 22 4 62 13
89 20 87 23 152 19 223 -15z m-549 -56 c26 -25 -190 -63 -403 -71 -170 -6
-176 -5 -176 45 0 18 6 22 33 23 315 13 535 14 546 3z m4207 -5 c2 -4 1 -22
-3 -39 l-6 -33 -216 6 c-154 5 -240 12 -299 25 -89 20 -98 25 -87 42 5 9 87
11 307 8 165 -1 302 -6 304 -9z m-4399 -197 c-8 -10 -27 -41 -41 -69 -74 -147
-75 -346 -4 -563 49 -152 144 -321 275 -492 114 -149 304 -306 488 -402 28
-14 78 -50 113 -81 35 -30 82 -68 105 -84 47 -32 298 -159 452 -228 186 -84
209 -102 391 -320 23 -27 45 -63 49 -81 6 -31 5 -32 -25 -32 -153 0 -422 56
-615 127 -279 104 -434 186 -647 345 -146 109 -252 209 -373 353 -198 236
-321 455 -428 761 -49 139 -62 191 -77 299 -5 39 -16 106 -25 149 -8 44 -18
133 -21 198 l-7 118 88 0 87 0 -32 -37 c-76 -86 -107 -228 -75 -339 20 -68 30
-84 56 -84 16 0 19 8 19 48 0 60 34 222 56 264 29 57 106 140 148 159 45 20
65 16 43 -9z m4065 -13 c114 -91 168 -200 182 -373 7 -77 9 -81 30 -73 27 11
50 59 61 132 10 63 9 81 -5 128 -18 58 -46 109 -91 167 l-27 35 95 -3 95 -3
-6 -112 c-29 -476 -140 -812 -403 -1219 -109 -168 -323 -398 -495 -531 -274
-212 -652 -386 -982 -452 -140 -28 -336 -44 -336 -28 0 23 34 90 80 158 92
136 189 204 441 312 154 66 366 186 462 262 54 43 136 99 182 124 151 83 222
136 325 244 192 201 326 417 388 628 80 270 66 435 -51 587 -19 25 -33 49 -29
52 9 10 45 -5 84 -35z m-308 -91 c88 -72 118 -166 78 -248 -20 -41 -93 -82
-145 -82 -106 0 -194 120 -166 225 33 124 147 176 233 105z m-3370 2 c79 -38
114 -130 81 -212 -22 -56 -41 -77 -90 -99 -55 -25 -100 -24 -151 6 -44 26 -84
90 -84 136 0 78 46 149 113 172 58 21 84 20 131 -3z m2504 -746 c129 -42 195
-172 147 -288 -38 -92 -144 -151 -224 -125 -49 16 -81 43 -113 95 -34 53 -35
95 -8 182 25 78 25 99 3 104 -23 5 82 47 118 47 15 1 49 -6 77 -15z m-807
-180 c10 -11 19 -26 19 -32 0 -7 -22 -40 -50 -74 -27 -34 -50 -66 -50 -70 0
-18 -16 -6 -39 30 -14 20 -38 52 -55 69 -35 38 -33 45 39 141 l47 63 35 -53
c19 -29 43 -62 54 -74z m-198 -249 l24 -29 -39 -52 c-55 -73 -106 -204 -119
-306 -6 -49 -8 -135 -4 -210 4 -71 4 -128 0 -128 -3 0 -29 17 -58 39 -60 44
-131 82 -272 144 -55 24 -109 48 -120 53 -33 14 108 17 189 3 39 -7 87 -13
106 -13 l35 -1 6 65 c7 74 20 117 77 250 22 52 49 136 61 185 31 129 28 126
61 75 16 -25 39 -58 53 -75z m312 48 c23 -86 83 -248 123 -333 27 -59 36 -92
40 -152 2 -44 9 -78 15 -78 6 0 38 5 71 10 100 17 307 37 299 29 -5 -4 -55
-26 -113 -49 -109 -43 -272 -122 -342 -166 -22 -14 -42 -24 -44 -22 -2 3 0 18
5 35 5 17 10 91 10 166 2 122 -1 144 -24 213 -27 81 -77 173 -127 237 -17 20
-28 43 -25 50 8 20 81 117 89 117 4 0 14 -26 23 -57z m-545 -150 c-7 -21 -30
-73 -52 -116 -21 -43 -41 -99 -45 -124 -3 -25 -12 -47 -20 -50 -26 -10 -347
16 -401 32 -30 9 -52 18 -50 20 1 2 39 8 83 14 163 23 263 71 405 195 47 41
87 73 88 71 2 -2 -2 -21 -8 -42z m802 -58 c165 -118 254 -156 378 -163 47 -2
89 -7 93 -12 4 -4 -18 -17 -50 -29 -45 -18 -92 -25 -213 -32 -85 -6 -166 -11
-180 -12 -23 -2 -25 2 -30 48 -4 38 -20 74 -67 150 -57 94 -81 145 -69 145 3
0 65 -43 138 -95z m-503 -432 c1 -219 -3 -364 -8 -368 -6 -3 -27 29 -48 72
l-38 78 0 240 0 240 39 80 c38 77 39 79 46 50 4 -16 8 -193 9 -392z m140 359
c57 -113 64 -154 59 -366 -4 -147 -9 -201 -22 -236 -18 -48 -66 -134 -71 -128
-3 3 -8 690 -6 761 1 15 3 27 6 27 3 0 18 -26 34 -58z"/>
<path d="M1149 4090 c-67 -35 -231 -228 -246 -289 -6 -25 16 -51 44 -51 7 0
43 40 81 89 38 48 101 116 140 150 40 34 72 66 72 71 0 12 -37 50 -47 50 -5
-1 -24 -10 -44 -20z"/>
<path d="M3887 4092 c-10 -10 -17 -22 -17 -26 0 -4 44 -51 98 -104 54 -54 119
-123 146 -154 49 -61 72 -70 99 -40 15 16 15 20 -5 52 -50 84 -202 250 -250
276 -36 19 -52 18 -71 -4z"/>
<path d="M1165 3815 c-34 -33 -34 -87 1 -122 21 -21 32 -24 62 -20 38 7 82 45
82 73 0 28 -31 75 -56 84 -40 16 -63 12 -89 -15z"/>
<path d="M3860 3828 c-93 -49 -33 -181 67 -147 38 12 53 34 53 77 0 59 -66 98
-120 70z"/>
<path d="M1184 1995 c-43 -18 -61 -63 -40 -102 18 -37 34 -50 68 -58 61 -16
118 95 70 138 -31 28 -65 36 -98 22z"/>
<path d="M3840 1975 c-75 -80 34 -194 114 -120 36 33 35 78 -3 116 -37 37 -79
38 -111 4z"/>
<path d="M1659 1621 c-37 -38 -39 -88 -6 -127 34 -39 81 -37 119 4 15 18 28
40 28 50 0 19 -36 83 -54 94 -23 16 -59 7 -87 -21z"/>
<path d="M1655 4104 c-53 -57 -18 -154 55 -154 43 0 90 47 90 90 0 22 -9 41
-29 61 -38 38 -83 39 -116 3z"/>
<path d="M3339 4101 c-81 -82 24 -202 115 -130 21 16 26 29 26 62 -1 45 -13
67 -47 85 -35 19 -63 14 -94 -17z"/>
<path d="M3375 1638 c-60 -32 -74 -107 -29 -152 56 -56 134 -17 134 68 0 37
-5 48 -31 70 -34 29 -44 31 -74 14z"/>
</g>
</svg>
