<svg xmlns="http://www.w3.org/2000/svg" xmlns:xlink="http://www.w3.org/1999/xlink" width="512" zoomAndPan="magnify" viewBox="0 0 384 383.999986" height="512" preserveAspectRatio="xMidYMid meet" version="1.0"><defs><clipPath id="7dcd7f1f29"><path d="M 192 0 C 298.039062 0 384 85.960938 384 192 C 384 298.039062 298.039062 384 192 384 C 85.960938 384 0 298.039062 0 192 C 0 85.960938 85.960938 0 192 0 L 192 76.800781 C 128.375 76.800781 76.800781 128.375 76.800781 192 C 76.800781 255.625 128.375 307.199219 192 307.199219 C 255.625 307.199219 307.199219 255.625 307.199219 192 C 307.199219 128.375 255.625 76.800781 192 76.800781 Z M 192 0 " clip-rule="nonzero"/></clipPath><clipPath id="2dea8ac4e3"><path d="M 41 4.5 L 384 4.5 L 384 384 L 41 384 Z M 41 4.5 " clip-rule="nonzero"/></clipPath><clipPath id="11efffbbd1"><path d="M 240 6.097656 C 319.042969 26.507812 376.539062 94.667969 383.332031 176.019531 C 390.128906 257.375 344.734375 334.128906 270.171875 367.367188 C 195.609375 400.605469 108.179688 383.058594 52.214844 323.621094 C 37.675781 308.183594 38.40625 283.878906 53.847656 269.339844 C 69.289062 254.800781 93.589844 255.535156 108.128906 270.972656 C 141.707031 306.632812 194.164062 317.164062 238.902344 297.21875 C 283.640625 277.277344 310.878906 231.222656 306.800781 182.410156 C 302.722656 133.601562 268.226562 92.703125 220.800781 80.457031 C 207.515625 77.027344 197.070312 66.773438 193.402344 53.554688 C 189.730469 40.335938 193.390625 26.164062 203 16.375 C 212.613281 6.585938 226.714844 2.667969 240 6.097656 Z M 240 6.097656 " clip-rule="nonzero"/></clipPath></defs><g clip-path="url(#7dcd7f1f29)"><rect x="-38.4" width="460.8" fill="#6ce5e8" y="-38.399999" height="460.799983" fill-opacity="1"/></g><g clip-path="url(#2dea8ac4e3)"><g clip-path="url(#11efffbbd1)"><rect x="-38.4" width="460.8" fill="#41b8d5" y="-38.399999" height="460.799983" fill-opacity="1"/></g></g></svg>